<mxfile host="65bd71144e">
    <diagram id="JLg42xd298YZv_rqI8FZ" name="Page-1">
        <mxGraphModel dx="571" dy="1587" grid="1" gridSize="10" guides="1" tooltips="1" connect="1" arrows="1" fold="1" page="1" pageScale="1" pageWidth="827" pageHeight="1169" math="0" shadow="0">
            <root>
                <mxCell id="0"/>
                <mxCell id="1" parent="0"/>
                <mxCell id="Z9jd6gcEfmC3mW5GTp2a-19" value="" style="edgeStyle=orthogonalEdgeStyle;rounded=0;orthogonalLoop=1;jettySize=auto;html=1;strokeColor=none;endArrow=none;endFill=0;" parent="1" source="Z9jd6gcEfmC3mW5GTp2a-2" target="Z9jd6gcEfmC3mW5GTp2a-11" edge="1">
                    <mxGeometry relative="1" as="geometry">
                        <Array as="points">
                            <mxPoint x="450" y="260"/>
                            <mxPoint x="450" y="260"/>
                        </Array>
                    </mxGeometry>
                </mxCell>
                <mxCell id="Z9jd6gcEfmC3mW5GTp2a-2" value="&lt;p style=&quot;margin:0px;margin-top:4px;text-align:center;&quot;&gt;&lt;b&gt;Web&lt;/b&gt;&lt;/p&gt;&lt;hr size=&quot;1&quot;&gt;&lt;p style=&quot;margin:0px;margin-left:4px;&quot;&gt;&lt;br&gt;&lt;/p&gt;&lt;hr size=&quot;1&quot;&gt;&lt;p style=&quot;margin:0px;margin-left:4px;&quot;&gt;&lt;br&gt;&lt;/p&gt;" style="verticalAlign=top;align=left;overflow=fill;fontSize=12;fontFamily=Helvetica;html=1;" parent="1" vertex="1">
                    <mxGeometry x="414" y="280" width="80" height="80" as="geometry"/>
                </mxCell>
                <mxCell id="Z9jd6gcEfmC3mW5GTp2a-5" value="&lt;p style=&quot;margin:0px;margin-top:4px;text-align:center;&quot;&gt;&lt;b&gt;Email&lt;/b&gt;&lt;br&gt;&lt;/p&gt;&lt;hr size=&quot;1&quot;&gt;&lt;p style=&quot;margin:0px;margin-left:4px;&quot;&gt;&lt;br&gt;&lt;/p&gt;&lt;hr size=&quot;1&quot;&gt;&lt;p style=&quot;margin:0px;margin-left:4px;&quot;&gt;&lt;br&gt;&lt;/p&gt;" style="verticalAlign=top;align=left;overflow=fill;fontSize=12;fontFamily=Helvetica;html=1;" parent="1" vertex="1">
                    <mxGeometry x="720" y="280" width="80" height="80" as="geometry"/>
                </mxCell>
                <mxCell id="Z9jd6gcEfmC3mW5GTp2a-6" value="&lt;p style=&quot;margin:0px;margin-top:4px;text-align:center;&quot;&gt;&lt;b&gt;Protocole&lt;/b&gt;&lt;/p&gt;&lt;hr size=&quot;1&quot;&gt;&lt;p style=&quot;margin:0px;margin-left:4px;&quot;&gt;&lt;br&gt;&lt;/p&gt;&lt;hr size=&quot;1&quot;&gt;&lt;p style=&quot;margin:0px;margin-left:4px;&quot;&gt;&lt;br&gt;&lt;/p&gt;" style="verticalAlign=top;align=left;overflow=fill;fontSize=12;fontFamily=Helvetica;html=1;" parent="1" vertex="1">
                    <mxGeometry x="550" y="-40" width="80" height="80" as="geometry"/>
                </mxCell>
                <mxCell id="Z9jd6gcEfmC3mW5GTp2a-15" value="" style="edgeStyle=orthogonalEdgeStyle;rounded=0;orthogonalLoop=1;jettySize=auto;html=1;" parent="1" source="Z9jd6gcEfmC3mW5GTp2a-8" target="Z9jd6gcEfmC3mW5GTp2a-6" edge="1">
                    <mxGeometry relative="1" as="geometry">
                        <Array as="points">
                            <mxPoint x="740" y="80"/>
                            <mxPoint x="590" y="80"/>
                        </Array>
                    </mxGeometry>
                </mxCell>
                <mxCell id="Z9jd6gcEfmC3mW5GTp2a-8" value="&lt;p style=&quot;margin: 0px ; margin-top: 4px ; text-align: center&quot;&gt;&lt;b&gt;Smtp&lt;/b&gt;&lt;/p&gt;&lt;hr size=&quot;1&quot;&gt;&lt;p style=&quot;margin: 0px ; margin-left: 4px&quot;&gt;&lt;br&gt;&lt;/p&gt;&lt;hr size=&quot;1&quot;&gt;&lt;p style=&quot;margin: 0px ; margin-left: 4px&quot;&gt;+ send()&lt;/p&gt;" style="verticalAlign=top;align=left;overflow=fill;fontSize=12;fontFamily=Helvetica;html=1;" parent="1" vertex="1">
                    <mxGeometry x="720" y="120" width="80" height="80" as="geometry"/>
                </mxCell>
                <mxCell id="Z9jd6gcEfmC3mW5GTp2a-13" value="" style="edgeStyle=orthogonalEdgeStyle;rounded=0;orthogonalLoop=1;jettySize=auto;html=1;" parent="1" source="Z9jd6gcEfmC3mW5GTp2a-9" target="Z9jd6gcEfmC3mW5GTp2a-6" edge="1">
                    <mxGeometry relative="1" as="geometry">
                        <Array as="points">
                            <mxPoint x="540" y="80"/>
                            <mxPoint x="590" y="80"/>
                        </Array>
                    </mxGeometry>
                </mxCell>
                <mxCell id="Z9jd6gcEfmC3mW5GTp2a-9" value="&lt;p style=&quot;margin: 0px ; margin-top: 4px ; text-align: center&quot;&gt;&lt;b&gt;Imap&lt;/b&gt;&lt;br&gt;&lt;/p&gt;&lt;hr size=&quot;1&quot;&gt;&lt;p style=&quot;margin: 0px ; margin-left: 4px&quot;&gt;&lt;br&gt;&lt;/p&gt;&lt;hr size=&quot;1&quot;&gt;&lt;p style=&quot;margin: 0px ; margin-left: 4px&quot;&gt;+ sync()&lt;/p&gt;" style="verticalAlign=top;align=left;overflow=fill;fontSize=12;fontFamily=Helvetica;html=1;" parent="1" vertex="1">
                    <mxGeometry x="510" y="120" width="80" height="80" as="geometry"/>
                </mxCell>
                <mxCell id="Z9jd6gcEfmC3mW5GTp2a-14" value="" style="edgeStyle=orthogonalEdgeStyle;rounded=0;orthogonalLoop=1;jettySize=auto;html=1;" parent="1" source="Z9jd6gcEfmC3mW5GTp2a-10" target="Z9jd6gcEfmC3mW5GTp2a-6" edge="1">
                    <mxGeometry relative="1" as="geometry">
                        <Array as="points">
                            <mxPoint x="640" y="80"/>
                            <mxPoint x="590" y="80"/>
                        </Array>
                    </mxGeometry>
                </mxCell>
                <mxCell id="Z9jd6gcEfmC3mW5GTp2a-10" value="&lt;p style=&quot;margin: 0px ; margin-top: 4px ; text-align: center&quot;&gt;&lt;b&gt;Pop&lt;/b&gt;&lt;br&gt;&lt;/p&gt;&lt;hr size=&quot;1&quot;&gt;&lt;p style=&quot;margin: 0px ; margin-left: 4px&quot;&gt;&lt;br&gt;&lt;/p&gt;&lt;hr size=&quot;1&quot;&gt;&lt;p style=&quot;margin: 0px ; margin-left: 4px&quot;&gt;+ download()&lt;/p&gt;" style="verticalAlign=top;align=left;overflow=fill;fontSize=12;fontFamily=Helvetica;html=1;" parent="1" vertex="1">
                    <mxGeometry x="610" y="120" width="80" height="80" as="geometry"/>
                </mxCell>
                <mxCell id="Z9jd6gcEfmC3mW5GTp2a-12" value="" style="edgeStyle=orthogonalEdgeStyle;rounded=0;orthogonalLoop=1;jettySize=auto;html=1;" parent="1" source="Z9jd6gcEfmC3mW5GTp2a-11" target="Z9jd6gcEfmC3mW5GTp2a-6" edge="1">
                    <mxGeometry relative="1" as="geometry">
                        <Array as="points">
                            <mxPoint x="440" y="80"/>
                            <mxPoint x="590" y="80"/>
                        </Array>
                    </mxGeometry>
                </mxCell>
                <mxCell id="Z9jd6gcEfmC3mW5GTp2a-11" value="&lt;p style=&quot;margin:0px;margin-top:4px;text-align:center;&quot;&gt;&lt;b&gt;Http&lt;/b&gt;&lt;br&gt;&lt;/p&gt;&lt;hr size=&quot;1&quot;&gt;&lt;p style=&quot;margin:0px;margin-left:4px;&quot;&gt;&lt;br&gt;&lt;/p&gt;&lt;hr size=&quot;1&quot;&gt;&lt;p style=&quot;margin:0px;margin-left:4px;&quot;&gt;&lt;br&gt;&lt;/p&gt;" style="verticalAlign=top;align=left;overflow=fill;fontSize=12;fontFamily=Helvetica;html=1;" parent="1" vertex="1">
                    <mxGeometry x="410" y="120" width="80" height="80" as="geometry"/>
                </mxCell>
                <mxCell id="Z9jd6gcEfmC3mW5GTp2a-20" value="" style="endArrow=none;endFill=0;html=1;edgeStyle=orthogonalEdgeStyle;align=left;verticalAlign=top;rounded=0;exitX=0.5;exitY=0;exitDx=0;exitDy=0;entryX=0.5;entryY=1;entryDx=0;entryDy=0;" parent="1" source="Z9jd6gcEfmC3mW5GTp2a-5" target="Z9jd6gcEfmC3mW5GTp2a-8" edge="1">
                    <mxGeometry x="-1" relative="1" as="geometry">
                        <mxPoint x="330" y="130" as="sourcePoint"/>
                        <mxPoint x="490" y="130" as="targetPoint"/>
                    </mxGeometry>
                </mxCell>
                <mxCell id="Z9jd6gcEfmC3mW5GTp2a-23" value="" style="endArrow=none;endFill=0;html=1;edgeStyle=orthogonalEdgeStyle;align=left;verticalAlign=top;rounded=0;exitX=0;exitY=0.5;exitDx=0;exitDy=0;entryX=0.5;entryY=1;entryDx=0;entryDy=0;" parent="1" source="Z9jd6gcEfmC3mW5GTp2a-5" target="Z9jd6gcEfmC3mW5GTp2a-10" edge="1">
                    <mxGeometry x="-1" relative="1" as="geometry">
                        <mxPoint x="770" y="290" as="sourcePoint"/>
                        <mxPoint x="770" y="210" as="targetPoint"/>
                    </mxGeometry>
                </mxCell>
                <mxCell id="Z9jd6gcEfmC3mW5GTp2a-25" value="" style="endArrow=none;endFill=0;html=1;edgeStyle=orthogonalEdgeStyle;align=left;verticalAlign=top;rounded=0;exitX=0;exitY=0.75;exitDx=0;exitDy=0;entryX=0.5;entryY=1;entryDx=0;entryDy=0;" parent="1" source="Z9jd6gcEfmC3mW5GTp2a-5" target="Z9jd6gcEfmC3mW5GTp2a-9" edge="1">
                    <mxGeometry x="-1" relative="1" as="geometry">
                        <mxPoint x="570" y="310" as="sourcePoint"/>
                        <mxPoint x="570" y="230" as="targetPoint"/>
                    </mxGeometry>
                </mxCell>
                <mxCell id="Z9jd6gcEfmC3mW5GTp2a-26" value="{OR}" style="endArrow=none;startArrow=none;endFill=0;startFill=0;endSize=8;html=1;verticalAlign=bottom;dashed=1;labelBackgroundColor=none;dashPattern=10 10;rounded=0;" parent="1" edge="1">
                    <mxGeometry y="10" width="160" relative="1" as="geometry">
                        <mxPoint x="554" y="270" as="sourcePoint"/>
                        <mxPoint x="654" y="270" as="targetPoint"/>
                        <mxPoint as="offset"/>
                    </mxGeometry>
                </mxCell>
                <mxCell id="Z9jd6gcEfmC3mW5GTp2a-27" value="" style="endArrow=none;endFill=0;html=1;edgeStyle=orthogonalEdgeStyle;align=left;verticalAlign=top;rounded=0;entryX=0.5;entryY=1;entryDx=0;entryDy=0;" parent="1" target="Z9jd6gcEfmC3mW5GTp2a-11" edge="1">
                    <mxGeometry x="-1" relative="1" as="geometry">
                        <mxPoint x="450" y="280" as="sourcePoint"/>
                        <mxPoint x="392" y="210" as="targetPoint"/>
                    </mxGeometry>
                </mxCell>
            </root>
        </mxGraphModel>
    </diagram>
</mxfile>